# xmcd CD database file
#
# Track frame offsets:
#	150
#	16892
#	32207
#	46912
#	63660
#	78660
#	101900
#	125532
#	141042
#	163250
#	177040
#	190355
#
# Disc length: 2703 seconds
#
# Revision: 0
# Processed by: cddbd v1.5PL3 Copyright (c) Steve Scherf et al.
# Submitted via: CDex 1.50
#
DISCID=a80a8d0c
DTITLE=橋本一子 - ロマンティックな雨
DYEAR=1992
DGENRE=Jazz
TTITLE0=ロマンティックな雨
TTITLE1=愛する・・・・・・
TTITLE2=はるかな想い
TTITLE3=もっとはやく
TTITLE4=Season
TTITLE5=自分を抱きしめるように
TTITLE6=モ・ノ・ガ・タ・リ
TTITLE7=4月の神秘
TTITLE8=ほんとの生命
TTITLE9=すこしときどき
TTITLE10=生まれつづけるために
TTITLE11=練習しましょ
EXTD=YEAR: 1992
EXTT0=
EXTT1=
EXTT2=
EXTT3=
EXTT4=
EXTT5=
EXTT6=
EXTT7=
EXTT8=
EXTT9=
EXTT10=
EXTT11=
PLAYORDER=
